<svg aria-hidden="true" style="position: absolute; width: 0; height: 0; overflow: hidden;" version="1.1" xmlns="http://www.w3.org/2000/svg" xmlns:xlink="http://www.w3.org/1999/xlink">
<defs>
<symbol id="icon-checkmark" viewBox="0 0 16 16">
<title>checkmark</title>
<path d="M10.91 6.515l-0.501-0.501c-0.092-0.093-0.242-0.093-0.334 0l-3.007 3.006-1.429-1.441c-0.093-0.093-0.242-0.093-0.335 0l-0.501 0.501c-0.093 0.092-0.093 0.242 0 0.334l2.096 2.111c0.093 0.092 0.242 0.092 0.334 0l3.677-3.677c0.093-0.093 0.093-0.242 0-0.335zM8 1.5c-3.59 0-6.5 2.91-6.5 6.5s2.91 6.5 6.5 6.5 6.5-2.91 6.5-6.5-2.91-6.5-6.5-6.5zM8 13c-2.761 0-5-2.239-5-5s2.239-5 5-5c2.761 0 5 2.239 5 5s-2.239 5-5 5z"></path>
</symbol>
<symbol id="icon-cancel" viewBox="0 0 16 16">
<title>cancel</title>
<path d="M8 14.5c-3.59 0-6.5-2.91-6.5-6.5s2.91-6.5 6.5-6.5 6.5 2.91 6.5 6.5-2.91 6.5-6.5 6.5zM8 3c-2.761 0-5 2.239-5 5s2.239 5 5 5c2.761 0 5-2.239 5-5s-2.239-5-5-5zM10.268 9.768l-0.507 0.507c-0.093 0.093-0.244 0.093-0.338 0l-1.435-1.435-1.435 1.435c-0.093 0.093-0.244 0.093-0.338 0l-0.507-0.507c-0.093-0.093-0.093-0.244 0-0.338l1.436-1.434-1.436-1.435c-0.093-0.093-0.093-0.245 0-0.338l0.507-0.506c0.093-0.093 0.244-0.093 0.338 0l1.435 1.435 1.435-1.435c0.094-0.093 0.245-0.093 0.338 0l0.507 0.506c0.093 0.093 0.093 0.245 0 0.338l-1.435 1.435 1.435 1.434c0.093 0.094 0.093 0.245 0 0.338z"></path>
</symbol>
<symbol id="icon-world" viewBox="0 0 16 16">
<title>world</title>
<path d="M7.75 0c-4.28 0-7.75 3.47-7.75 7.75s3.47 7.75 7.75 7.75 7.75-3.47 7.75-7.75-3.47-7.75-7.75-7.75zM14.488 7.5h-2.998c-0.027-1.107-0.225-2.165-0.574-3.134 0.675-0.282 1.299-0.656 1.868-1.099 1.011 1.135 1.644 2.61 1.704 4.232zM7.473 14.486c-0.831-0.692-1.528-1.591-2.038-2.634 0.654-0.204 1.348-0.316 2.064-0.339v2.975c-0.009 0-0.018-0.001-0.027-0.001zM8.025 1.014c0.943 0.785 1.713 1.837 2.233 3.063-0.713 0.244-1.47 0.385-2.259 0.41v-3.474c0.009 0 0.018 0.001 0.026 0.002zM8.858 1.099c1.38 0.23 2.618 0.874 3.582 1.807-0.524 0.401-1.095 0.742-1.714 0.999-0.455-1.079-1.094-2.032-1.868-2.806zM7.5 1.012v3.474c-0.788-0.026-1.546-0.167-2.259-0.41 0.521-1.226 1.29-2.278 2.233-3.063 0.009-0 0.017-0.001 0.026-0.002zM4.773 3.905c-0.617-0.257-1.19-0.598-1.713-0.999 0.963-0.933 2.202-1.577 3.582-1.807-0.775 0.773-1.413 1.727-1.869 2.806zM5.053 4.538c0.771 0.268 1.593 0.423 2.447 0.45v2.513h-2.989c0.027-1.047 0.213-2.048 0.542-2.962zM7.5 8v3.012c-0.788 0.024-1.551 0.153-2.269 0.384-0.433-1.031-0.689-2.18-0.72-3.397h2.989zM6.641 14.401c-1.237-0.206-2.359-0.744-3.272-1.526 0.493-0.341 1.025-0.63 1.594-0.85 0.436 0.904 1.006 1.707 1.679 2.376zM8 14.488v-2.974c0.716 0.023 1.41 0.135 2.064 0.339-0.511 1.043-1.207 1.942-2.038 2.634-0.008 0-0.018 0.001-0.027 0.001zM10.537 12.025c0.569 0.22 1.101 0.509 1.594 0.85-0.913 0.781-2.036 1.32-3.273 1.526 0.672-0.669 1.242-1.472 1.678-2.376zM10.27 11.397c-0.719-0.232-1.482-0.361-2.27-0.384v-3.013h2.989c-0.031 1.217-0.287 2.366-0.72 3.397zM8 7.5v-2.513c0.854-0.026 1.676-0.181 2.447-0.449 0.329 0.915 0.514 1.915 0.542 2.962h-2.989zM2.717 3.268c0.569 0.442 1.193 0.817 1.868 1.098-0.349 0.968-0.546 2.027-0.574 3.134h-2.998c0.060-1.623 0.692-3.097 1.704-4.232zM1.012 8h2.998c0.031 1.277 0.298 2.484 0.752 3.569-0.633 0.247-1.224 0.576-1.769 0.966-1.174-1.168-1.915-2.766-1.98-4.534zM12.507 12.534c-0.545-0.389-1.136-0.719-1.77-0.966 0.454-1.085 0.72-2.291 0.752-3.569h2.998c-0.066 1.768-0.807 3.366-1.98 4.534z"></path>
</symbol>
<symbol id="icon-heart" viewBox="0 0 16 16">
<title>heart</title>
<path d="M8 14.857c-0.143 0-0.286-0.054-0.393-0.161l-5.571-5.375c-0.071-0.063-2.036-1.857-2.036-4 0-2.616 1.598-4.179 4.268-4.179 1.563 0 3.027 1.232 3.732 1.929 0.705-0.696 2.17-1.929 3.732-1.929 2.67 0 4.268 1.563 4.268 4.179 0 2.143-1.964 3.938-2.045 4.018l-5.563 5.357c-0.107 0.107-0.25 0.161-0.393 0.161z"></path>
</symbol>
<symbol id="icon-heart-o" viewBox="0 0 16 16">
<title>heart-o</title>
<path d="M14.857 5.321c0-2.509-1.696-3.036-3.125-3.036-1.33 0-2.83 1.438-3.295 1.991-0.214 0.259-0.661 0.259-0.875 0-0.464-0.554-1.964-1.991-3.295-1.991-1.429 0-3.125 0.527-3.125 3.036 0 1.634 1.652 3.152 1.67 3.17l5.188 5 5.179-4.991c0.027-0.027 1.679-1.545 1.679-3.179zM16 5.321c0 2.143-1.964 3.938-2.045 4.018l-5.563 5.357c-0.107 0.107-0.25 0.161-0.393 0.161s-0.286-0.054-0.393-0.161l-5.571-5.375c-0.071-0.063-2.036-1.857-2.036-4 0-2.616 1.598-4.179 4.268-4.179 1.563 0 3.027 1.232 3.732 1.929 0.705-0.696 2.17-1.929 3.732-1.929 2.67 0 4.268 1.563 4.268 4.179z"></path>
</symbol>
<symbol id="icon-phone" viewBox="0 0 13 16">
<title>phone</title>
<path d="M12.571 11.071c0 0.321-0.143 0.946-0.277 1.241-0.188 0.438-0.688 0.723-1.089 0.946-0.527 0.286-1.063 0.455-1.661 0.455-0.83 0-1.58-0.339-2.339-0.616-0.545-0.196-1.071-0.438-1.563-0.741-1.518-0.938-3.348-2.768-4.286-4.286-0.304-0.491-0.545-1.018-0.741-1.563-0.277-0.759-0.616-1.509-0.616-2.339 0-0.598 0.17-1.134 0.455-1.661 0.223-0.402 0.509-0.902 0.946-1.089 0.295-0.134 0.92-0.277 1.241-0.277 0.063 0 0.125 0 0.188 0.027 0.188 0.063 0.384 0.5 0.473 0.679 0.286 0.509 0.563 1.027 0.857 1.527 0.143 0.232 0.411 0.518 0.411 0.795 0 0.545-1.616 1.339-1.616 1.821 0 0.241 0.223 0.554 0.348 0.768 0.902 1.625 2.027 2.75 3.652 3.652 0.214 0.125 0.527 0.348 0.768 0.348 0.482 0 1.277-1.616 1.821-1.616 0.277 0 0.563 0.268 0.795 0.411 0.5 0.295 1.018 0.571 1.527 0.857 0.179 0.089 0.616 0.286 0.679 0.473 0.027 0.063 0.027 0.125 0.027 0.188z"></path>
</symbol>
<symbol id="icon-caret-left" viewBox="0 0 6 16">
<title>caret-left</title>
<path d="M5.714 4v8c0 0.313-0.259 0.571-0.571 0.571-0.152 0-0.295-0.063-0.402-0.17l-4-4c-0.107-0.107-0.17-0.25-0.17-0.402s0.063-0.295 0.17-0.402l4-4c0.107-0.107 0.25-0.17 0.402-0.17 0.313 0 0.571 0.259 0.571 0.571z"></path>
</symbol>
<symbol id="icon-caret-right" viewBox="0 0 5 16">
<title>caret-right</title>
<path d="M5.143 8c0 0.152-0.063 0.295-0.17 0.402l-4 4c-0.107 0.107-0.25 0.17-0.402 0.17-0.313 0-0.571-0.259-0.571-0.571v-8c0-0.313 0.259-0.571 0.571-0.571 0.152 0 0.295 0.063 0.402 0.17l4 4c0.107 0.107 0.17 0.25 0.17 0.402z"></path>
</symbol>
<symbol id="icon-search" viewBox="0 0 16 16">
<title>search</title>
<path d="M15.857 14.476c0.19 0.191 0.19 0.499 0 0.691l-0.691 0.691c-0.191 0.19-0.5 0.19-0.691 0l-4.834-4.834c-0.053-0.053-0.088-0.114-0.111-0.181-0.992 0.725-2.209 1.157-3.531 1.157-3.313 0-6-2.687-6-6s2.687-6 6-6c3.313 0 6 2.687 6 6 0 1.322-0.432 2.54-1.157 3.531 0.066 0.024 0.128 0.058 0.181 0.111l4.834 4.834zM6 2c-2.209 0-4 1.791-4 4s1.791 4 4 4 4-1.791 4-4c0-2.209-1.791-4-4-4z"></path>
</symbol>
<symbol id="icon-spinner11" viewBox="0 0 16 16">
<title>spinner11</title>
<path d="M16 6h-6l2.243-2.243c-1.133-1.133-2.64-1.757-4.243-1.757s-3.109 0.624-4.243 1.757c-1.133 1.133-1.757 2.64-1.757 4.243s0.624 3.109 1.757 4.243c1.133 1.133 2.64 1.757 4.243 1.757s3.109-0.624 4.243-1.757c0.095-0.095 0.185-0.192 0.273-0.292l1.505 1.317c-1.466 1.674-3.62 2.732-6.020 2.732-4.418 0-8-3.582-8-8s3.582-8 8-8c2.209 0 4.209 0.896 5.656 2.344l2.343-2.344v6z"></path>
</symbol>
<symbol id="icon-spinner11" viewBox="0 0 16 16">
<title>spinner11</title>
<path d="M16 6h-6l2.243-2.243c-1.133-1.133-2.64-1.757-4.243-1.757s-3.109 0.624-4.243 1.757c-1.133 1.133-1.757 2.64-1.757 4.243s0.624 3.109 1.757 4.243c1.133 1.133 2.64 1.757 4.243 1.757s3.109-0.624 4.243-1.757c0.095-0.095 0.185-0.192 0.273-0.292l1.505 1.317c-1.466 1.674-3.62 2.732-6.020 2.732-4.418 0-8-3.582-8-8s3.582-8 8-8c2.209 0 4.209 0.896 5.656 2.344l2.343-2.344v6z"></path>
</symbol>
<symbol id="icon-location" viewBox="0 0 16 16">
<title>location</title>
<path d="M8 16s-5.6-7.304-5.6-10.4c0-3.093 2.507-5.6 5.6-5.6s5.6 2.507 5.6 5.6v0c0 3.096-5.6 10.4-5.6 10.4zM8 7.2c0.884 0 1.6-0.716 1.6-1.6s-0.716-1.6-1.6-1.6v0c-0.884 0-1.6 0.716-1.6 1.6s0.716 1.6 1.6 1.6v0z"></path>
</symbol>
</defs>
</svg>
